<svg width="41" height="41" viewBox="0 0 41 41" fill="none" xmlns="http://www.w3.org/2000/svg">
<path d="M12.75 11.5V22M20.5064 11.5V17M28.1772 11.5V27M35.5 24.5714V33C35.5 34.3807 34.3807 35.5 33 35.5H8C6.61929 35.5 5.5 34.3807 5.5 33V20.5V8C5.5 6.61929 6.61929 5.5 8 5.5H33C34.3807 5.5 35.5 6.61929 35.5 8V25" stroke="white" stroke-width="1.6" stroke-linecap="round"/>
<path d="M40 32.5V36C40 38.2091 38.2091 40 36 40H5C2.79086 40 1 38.2091 1 36V5C1 2.79086 2.79086 1 5 1H36C38.2091 1 40 2.79086 40 5V26.5" stroke="white" stroke-width="1.6" stroke-linecap="round"/>
<circle cx="40" cy="29.5002" r="0.8" fill="white"/>
</svg>
