<svg width="245" height="206" viewBox="0 0 245 206" fill="none" xmlns="http://www.w3.org/2000/svg">
<rect width="245" height="206" rx="4" fill="#EAEAEA"/>
<path d="M159.034 57.036H83.9709C77.9203 57.036 73 61.9547 73 68.0125V137C73 143.051 77.9203 147.964 83.9709 147.964H159.034C165.085 147.964 170 143.051 170 137V68.0125C170 61.9547 165.085 57.036 159.034 57.036ZM135.725 73.3601C141.576 73.3601 146.322 78.1057 146.322 83.9566C146.322 89.8075 141.576 94.5531 135.725 94.5531C129.872 94.5531 125.129 89.8075 125.129 83.9566C125.129 78.1057 129.872 73.3601 135.725 73.3601ZM155.594 137.823H121.499H88.9234C85.9968 137.823 84.6934 135.706 86.0127 133.093L104.198 97.0735C105.516 94.4615 108.027 94.2284 109.806 96.5523L128.092 120.45C129.87 122.774 132.979 122.972 135.036 120.889L139.51 116.359C141.565 114.277 144.594 114.535 146.272 116.931L157.856 133.478C159.53 135.878 158.52 137.823 155.594 137.823Z" fill="#D6D6D6"/>
</svg>
